<?xml version="1.0" encoding="utf-8"?>
<!-- Generator: Adobe Illustrator 28.3.0, SVG Export Plug-In . SVG Version: 6.00 Build 0)  -->
<svg version="1.1" id="Layer_1" xmlns="http://www.w3.org/2000/svg" xmlns:xlink="http://www.w3.org/1999/xlink" x="0px" y="0px"
	 viewBox="0 0 400 400" style="enable-background:new 0 0 400 400;" xml:space="preserve">
<style type="text/css">
	.st0{fill:#FFFFFF;}
</style>
<g>
	<path d="M207.3,303c4.4,0,17.8,0,28.9-9.6c9.9-9,10.9-19.5,11.2-31.4l-0.1-33.5c0-10.5,0-23.3-10.9-32.4c-2.3-1.9-5-3.5-8.2-4.9
		c5.1-3.4,8.5-8.1,10.5-14c1.7-5.2,1.6-11.8,1.6-14.3l-0.1-29.8c-0.3-8.3-1.2-17.7-7.9-25.3c-5.9-6.5-14.8-9.9-26-9.9
		c-0.1,0-0.1,0-0.2,0l-40.5,0.1c-1.2,0-2.3,0.5-3.3,1.4c-0.9,0.9-1.3,2-1.3,3.2l0.3,195.8c0,1.6,0.8,3.1,2.2,3.9
		c0.7,0.5,1.6,0.7,2.6,0.7L207.3,303z M222.9,216.3c1.2,3.8,1.4,7.9,1.4,11.8l0.1,27.8c0,12.7-0.8,18.6-5.6,22.3
		c-2.9,2.1-6.4,3.3-15.4,3.6c0,0-15.5,0-16.7,0c-1.4,0-1.9-0.8-1.9-2.2c0-11.4-0.2-74.4-0.2-74.9c0-0.6,0.2-1.4,1.3-1.4
		c5.5,0,10.9,0,16.3,0.5c4.7,0.5,9.8,1.4,13.9,4C219.3,209.9,221.5,212.7,222.9,216.3z M185.5,118.9h11.1c14.5,0,20.8,2.1,20.8,17
		c0,0,0,24.4,0,25.1c-0.2,6-0.3,16.3-12.2,19.8c-3.3,0.9-4.9,1.2-12.2,1.5l-7.2,0c0,0-0.1,0-0.1,0c-1.1,0-1.4-0.6-1.4-1.5
		c0-0.6-0.1-60.3-0.1-60.3C184.1,119.5,184.5,119,185.5,118.9z M200.5,46.8c-84.8,0-153.7,69-153.7,153.7s69,153.7,153.7,153.7
		s153.7-69,153.7-153.7S285.3,46.8,200.5,46.8z M339.7,163c2.6,9.8,4.3,19.9,4.8,30.4c-4.2,8.4-12.6,15.3-18.7,18.7
		c-0.5-4-1.2-8.5-2.1-12.6c-0.9-4.2-2-8.4-3.1-12.5c4.9-3.1,9.1-6.8,12.4-11.3C336.1,171.5,338.3,167.2,339.7,163z M200.5,56.4
		c55.2,0,103.2,31.2,127.4,76.8c6,11.3,5.5,25.1-1.8,35.6c-0.3,0.4-0.6,0.8-0.8,1.2c-2.1,2.8-4.6,5.3-7.6,7.4
		c-7.8-24.7-18.9-46.2-33-64.1c-14.7-18.6-32.7-33.4-53.6-44.1C219.2,63,207.8,59,197.9,56.4C198.8,56.4,199.6,56.4,200.5,56.4z
		 M106.8,310c-30-25.7-49.4-63.6-50.4-105.9c6.2,6.6,15.9,15.3,29.4,23.7c15,9.4,36.9,19.4,65.9,24.2l0-9.7
		c-26.5-4.6-46.5-13.7-60.4-22.3c-19.9-12.3-31-25.6-34.5-30.2c1.7-23.3,9-45,20.5-63.9c6.1-2.3,34.4-11,70.1,8.5
		c1.4,0.7,2.8,1.5,4.2,2.3l0-11c-28-15.2-51.9-14.6-66-12c14.1-18.7,32.7-33.8,54.1-43.8c16-7.5,34.1-9.4,51.3-5.3
		c10.4,2.4,22.8,6.5,35.8,13.1c19.6,10,36.6,24,50.5,41.5c13.8,17.5,24.5,38.6,32,62.9c-4.6,1.9-9.9,3.3-15.9,4.2
		c-13.7,1.9-29.1-1.5-45.1-7.6c-1,3.7-1.6,5.3-3.7,8.8c14.1,5.4,28,8.9,41,8.9c3.1,0,6.1-0.2,9.1-0.6c6.3-0.9,12.1-2.3,17.2-4.4
		c0.9,3.3,1.7,6.7,2.5,10.2c1.1,5.1,2,10.2,2.5,15.2c-14.1,7.2-34.1,14.6-59.8,20.1l0,9.7c23.3-4.9,44.2-11.6,60.5-19.4
		c0.2,8.4-0.4,16.8-1.8,25.1c-6.9,4.1-14.9,10.3-24.3,18.5c-22.8,20.2-45,37.9-84.9,50.7c-20.1,6.4-40.3,7.2-55.4,6.3
		C134.8,326.9,119.3,320.6,106.8,310z M305.5,285.2c-1.6,3.6-3.3,6.9-5,9.9c-8.4,15.2-21.3,27.3-36.9,34.9
		c-19.1,9.4-40.6,14.6-63.2,14.6c-15.4,0-30.3-2.4-44.2-6.9c1.6,0,3.2,0.1,4.9,0.1c14.2,0,31.2-1.6,48.3-7.1
		c41.7-13.3,65.6-32.5,88.4-52.7c5.8-5.1,10.7-9.1,14.8-12.1C310.8,272.4,308.4,278.8,305.5,285.2z M314.6,288.5
		c3.7-8.2,7.3-18.3,9.6-29.9c5.8-2.9,8.4-2.7,9.3-2.4C328.6,267.8,322.2,278.7,314.6,288.5z M337.3,245.9c-0.3-0.2-1.2-0.3-3.4-0.3
		c-3.6,0.1-7.8,1.7-7.8,1.7c1-7.8,1.3-16.2,0.8-25c3.1-1.8,6-3.7,8.7-5.6c3.6-2.6,6.5-5.1,8.9-7.5
		C343.6,221.9,341.2,234.2,337.3,245.9z"/>
	<g>
		<path class="st0" d="M185.8,182.3l7.2,0c7.3-0.2,8.9-0.5,12.2-1.5c12-3.6,12.1-13.8,12.2-19.8c0-0.8,0-25.1,0-25.1
			c0-14.9-6.3-17-20.8-17h-11.1c-1,0.1-1.4,0.7-1.4,1.7c0,0,0.1,59.7,0.1,60.3c0,0.9,0.3,1.5,1.4,1.5
			C185.7,182.3,185.7,182.3,185.8,182.3z"/>
		<path class="st0" d="M222.9,216.3c-1.4-3.7-3.6-6.4-6.8-8.4c-4.1-2.6-9.1-3.5-13.9-4c-5.4-0.6-10.9-0.5-16.3-0.5
			c-1.2,0-1.3,0.8-1.3,1.4c0,0.5,0.2,63.5,0.2,74.9c0,1.3,0.5,2.2,1.9,2.2c1.2,0,16.7,0,16.7,0c9-0.3,12.6-1.5,15.4-3.6
			c4.8-3.7,5.6-9.7,5.6-22.3l-0.1-27.8C224.3,224.3,224.2,220.1,222.9,216.3z"/>
		<path class="st0" d="M317.5,227.2c-16.3,7.9-37.2,14.5-60.5,19.4l0-9.7c25.7-5.5,45.8-12.9,59.8-20.1c-0.5-5.1-1.4-10.1-2.5-15.2
			c-0.8-3.5-1.6-6.8-2.5-10.2c-5.1,2-10.9,3.5-17.2,4.4c-3,0.4-6,0.6-9.1,0.6c-13,0-26.9-3.5-41-8.9c2.1-3.5,2.6-5.1,3.7-8.8
			c15.9,6.1,31.4,9.5,45.1,7.6c5.9-0.8,11.2-2.2,15.9-4.2c-7.5-24.3-18.2-45.4-32-62.9c-13.8-17.5-30.8-31.5-50.5-41.5
			c-13-6.6-25.4-10.7-35.8-13.1c-17.2-4-35.3-2.2-51.3,5.3c-21.4,10-40,25.2-54.1,43.8c14.1-2.6,38-3.2,66,12l0,11
			c-1.4-0.8-2.8-1.6-4.2-2.3c-35.7-19.5-64-10.8-70.1-8.5c-11.5,18.9-18.8,40.6-20.5,63.9c3.5,4.6,14.6,17.8,34.5,30.2
			c13.9,8.6,33.9,17.8,60.4,22.3l0,9.7c-29-4.8-50.9-14.8-65.9-24.2c-13.5-8.4-23.1-17.1-29.4-23.7c1,42.3,20.4,80.2,50.4,105.9
			c12.4,10.6,28,16.9,44.3,17.9c15,0.8,35.3,0.1,55.4-6.3c39.9-12.8,62.1-30.5,84.9-50.7c9.3-8.3,17.4-14.4,24.3-18.5
			C317.1,244,317.7,235.6,317.5,227.2z M236.2,293.4c-11.2,9.5-24.6,9.6-28.9,9.6l-41.2,0.1c-0.9,0-1.8-0.3-2.6-0.7
			c-1.4-0.8-2.2-2.3-2.2-3.9L161,102.6c0-1.2,0.4-2.3,1.3-3.2c0.9-0.9,2.1-1.4,3.3-1.4l40.5-0.1c0.1,0,0.1,0,0.2,0
			c11.2,0,20.1,3.4,26,9.9c6.7,7.6,7.6,17,7.9,25.3l0.1,29.8c0.1,2.5,0.1,9.1-1.6,14.3c-1.9,5.9-5.4,10.6-10.5,14
			c3.3,1.3,6,3,8.2,4.9c10.9,9.1,10.9,21.9,10.9,32.4l0.1,33.5C247.2,273.9,246.1,284.4,236.2,293.4z"/>
		<path class="st0" d="M297.8,278c-22.8,20.1-46.7,39.3-88.4,52.7c-17.1,5.5-34.1,7.1-48.3,7.1c-1.7,0-3.3,0-4.9-0.1
			c13.9,4.5,28.8,6.9,44.2,6.9c22.7,0,44.1-5.3,63.2-14.6c15.6-7.6,28.5-19.7,36.9-34.9c1.7-3,3.4-6.3,5-9.9
			c2.9-6.4,5.2-12.8,7.1-19.3C308.5,268.9,303.6,272.9,297.8,278z"/>
		<path class="st0" d="M339.7,163c-1.4,4.2-3.5,8.6-6.7,12.7c-3.4,4.5-7.5,8.2-12.4,11.3c1.1,4.1,2.1,8.2,3.1,12.5
			c0.9,4.1,1.6,8.6,2.1,12.6c6.1-3.4,14.4-10.3,18.7-18.7C343.9,182.9,342.3,172.7,339.7,163z"/>
		<path class="st0" d="M324.2,258.6c-2.4,11.7-6,21.8-9.6,29.9c7.6-9.9,14-20.7,18.9-32.4C332.6,255.9,330,255.7,324.2,258.6z"/>
		<path class="st0" d="M284.7,113.2c14.2,18,25.3,39.5,33,64.1c3-2.1,5.5-4.6,7.6-7.4c0.3-0.4,0.6-0.8,0.8-1.2
			c7.2-10.5,7.7-24.3,1.8-35.6c-24.2-45.7-72.2-76.8-127.4-76.8c-0.9,0-1.7,0-2.6,0c9.9,2.7,21.3,6.7,33.2,12.7
			C251.9,79.8,270,94.6,284.7,113.2z"/>
		<path class="st0" d="M337.3,245.9c3.9-11.7,6.3-24,7.1-36.7c-2.4,2.4-5.3,4.9-8.9,7.5c-2.6,1.9-5.5,3.8-8.7,5.6
			c0.5,8.8,0.2,17.2-0.8,25c0,0,4.3-1.5,7.8-1.7C336.2,245.5,337,245.7,337.3,245.9z"/>
	</g>
</g>
</svg>
