<?xml version="1.0" encoding="utf-8"?>
<!-- Generator: Adobe Illustrator 28.3.0, SVG Export Plug-In . SVG Version: 6.00 Build 0)  -->
<svg version="1.1" id="Layer_1" xmlns="http://www.w3.org/2000/svg" xmlns:xlink="http://www.w3.org/1999/xlink" x="0px" y="0px"
	 viewBox="0 0 400 400" style="enable-background:new 0 0 400 400;" xml:space="preserve">
<style type="text/css">
	.st0{fill:#FFFFFF;}
	.st1{fill:#12173F;}
</style>
<g>
	<path class="st0" d="M360,200.5c0,88.4-71.7,160-160,160s-160-71.7-160-160s71.7-160,160-160S360,112.1,360,200.5"/>
	<path class="st1" d="M84.4,189.9l-30.7,4.8C56.7,116.4,121.1,54,200.1,54l0,0v0.8v47.5h0v14.2h0v7.8h0v8l0.7,0.2l2.2-8.3h38.3
		l0.3,1c-0.4,2.8-0.2,11.2,13.9,17.2l0.4,1.1l-55.8-1.4l-55.8,1.4l0.4-1.1c14-6,14.2-14.4,13.9-17.2l0.3-1h38.3l-2-7.6l-27.9,0.9
		l0.2-0.7c8.3-4.7,8.6-11.3,8.4-13.7l0.3-0.9h15.2L187,85.1C132.5,91.2,89.4,135,84.4,189.9 M299,139.6l-4.5,13.6l1,2h40.5l1.7-5.1
		C317.9,95.8,266.7,56.5,206,54.1l4.8,30.8C248.2,88.3,280.4,109.3,299,139.6 M295.5,245.8l-1,2l4.5,13.6
		c-18.7,30.3-50.8,51.3-88.1,54.8l-4.8,30.8c60.6-2.5,111.7-41.7,131.6-96.1l-1.7-5.1H295.5z M258.5,151.3l-0.4-1.2h-58h-58
		l-0.4,1.2c-0.1,3.5-1.7,14.5-16.9,29.6l-0.4,1.3c8.5-3.7,16.1-6.7,23.3-9.4c8.8-3.3,17-5.9,25.1-8.1c4.4-1.2,8.8-2.2,13-3.1
		c4.5-0.9,9-1.7,13.3-2.3l0.9-0.1l0.9,0.1c3.7,0.5,7.5,1.1,11.4,1.9c3.6,0.7,7.4,1.6,11.2,2.6c6.9,1.8,14,4,21.8,6.7
		c10.4,3.7,20.7,7.9,30.6,12.2l-0.6-1.8C260.2,165.8,258.5,154.8,258.5,151.3 M232.6,116.9c-8.3-4.7-8.6-11.3-8.4-13.7l-0.3-0.9
		h-15.2l-3.7,14.4l27.9,0.9L232.6,116.9z M226,269.1c0.1,0.2,0.2,0.3,0.4,0.5l0,0l0,0c0.3,0.4,0.8,0.8,1.3,1.1
		c0.5,0.3,1.2,0.7,2,1.1l0,0l0,0c1.4,0.6,3.1,1.2,5.3,1.7c4,1,8.5,1.5,12.5,1.9c1.1,0.1,2.2,0.2,3.3,0.3c1.8-5.2,4-10.3,6.6-15.5
		c-4.7,2.1-9.7,3.9-15,5.4C235.7,267.6,229.9,268.6,226,269.1 M165.2,273.5c2.2-0.5,3.9-1.1,5.3-1.7l0,0c0.8-0.3,1.4-0.7,2-1.1
		c0.5-0.4,1-0.8,1.3-1.1l0,0l0,0c0.1-0.2,0.3-0.3,0.4-0.5c-3.9-0.5-9.7-1.5-16.4-3.4c-5.3-1.5-10.3-3.3-15-5.4
		c2.5,5.1,4.8,10.3,6.6,15.5c1.1-0.1,2.2-0.2,3.3-0.3C156.6,275,161.2,274.5,165.2,273.5 M346.5,200.5v0.1v5.7l-30.7,4.8l-32.1,5.1
		c-6.9,11.2-14.3,22.3-20.6,33.5c-0.8,0.5-1.5,0.9-2.3,1.4c-10.2,5.8-21.6,9.3-34.1,10.4c1.1-2.7,2.8-5.3,4.5-7.9
		c0.9-1.4,2-2.9,3.3-4.6c1.1-1.5,2.2-3,3.5-4.6c3.2-4.1,6.6-8.4,9.9-12.4c1.6-2,3.3-4.1,4.9-6.1l3.7-4.7c0.2-0.2,0.3-0.4,0.5-0.6
		c1.1-1.4,2.1-2.8,3.1-4.2c1.1-1.5,2.3-3.2,3.4-4.9c0.3-0.5,0.7-1.1,1-1.6c0.2-0.3,0.4-0.6,0.6-0.9l0,0c0,0,0,0,0,0l-6.2-1.8
		c0,0,0,0.1-0.1,0.1c-0.3,0.5-0.6,1-1,1.5c-0.9,1.4-2,2.9-3.3,4.7c-1.8,2.4-4.3,5.5-6.9,8.6c-0.1,0.2-0.3,0.3-0.4,0.5l0,0
		c-3.3,3.8-6.8,7.6-10.3,11.2c-2,2.1-4,4.3-6,6.4c-2.5,2.7-5.3,5.9-7.9,9.3c-1.3,1.6-2.5,3.4-3.6,5.1c-0.9,1.5-2.1,3.5-2.9,5.7
		c-0.6,1.6-1.4,4-1.3,6.9c0,2.7,1.2,5.6,3.1,7.6c1,1.2,2.3,2.1,3.3,2.8l0,0l0,0c1.3,0.8,2.5,1.4,3.7,1.9c2.2,0.9,4.6,1.6,7.5,2.1
		c2.5,0.5,5,0.7,7.3,0.9c2.5,0.2,5,0.2,7.1,0.3c0.1,0,0.2,0,0.3,0c0.5,0,0.9,0,1.4,0c-0.4,1.4-0.7,2.8-1,4.2c0,0,0,0,0,0
		c0,0,0,0-0.1,0l-21.5,7.7l-13.3,5l-9.2-95.6l-0.8-8.7l-1.7-17.5l-1,0.3v17.2v5v2.3v104.8v38.9v0.8c-80.9,0-146.5-65.6-146.5-146.4
		h0l0-0.1h32.3h54h8.5l0.3-0.9l-14-3.9l-13.2-3.6l0.5-1.4c24.1-10.7,50.4-21,78.2-24.8c27.2,3.6,53.5,14.5,78.3,25.2l0.3,1
		l-13.2,3.6l-14,3.9l0.3,0.9h8.5h54H346.5z M189.4,316.2l-2.6-16.8l-12.7-4.7l-21.4-7.7c0,0-0.1,0-0.1,0c0,0,0,0,0,0h0h0
		c-0.3-1.4-0.6-2.8-1-4.2c0.5,0,0.9,0,1.4,0c0.1,0,0.2,0,0.3,0c2.1,0,4.6,0,7.1-0.3c2.3-0.2,4.8-0.4,7.3-0.9
		c2.9-0.5,5.2-1.2,7.5-2.1c1.2-0.5,2.4-1.1,3.7-1.9l0,0l0,0c1.1-0.7,2.3-1.6,3.3-2.8c1.9-2.1,3-4.9,3.1-7.6c0-1.4,0-3.5-1.3-6.9
		c-0.9-2.2-2-4.2-2.9-5.7c-1.1-1.7-2.3-3.5-3.6-5.1c-2.6-3.4-5.5-6.6-7.9-9.3c-2-2.2-4-4.3-6-6.4c-3.4-3.7-7-7.4-10.3-11.2l0,0
		c-0.1-0.2-0.3-0.3-0.4-0.5c-2.7-3.1-5.1-6.2-7-8.6c-1.3-1.8-2.4-3.3-3.3-4.7c-0.3-0.5-0.6-1-0.9-1.5c0,0,0-0.1-0.1-0.1l-6.2,1.8
		c0,0,0,0,0,0l0,0c0.2,0.3,0.4,0.6,0.6,0.9c0.3,0.5,0.7,1.1,1,1.6c1.1,1.7,2.3,3.4,3.4,4.9c1,1.4,2.1,2.8,3.1,4.2
		c0.1,0.2,0.3,0.4,0.4,0.6l3.7,4.7c1.6,2,3.3,4.1,4.9,6.1c3.3,4.1,6.7,8.3,9.9,12.4c1.3,1.6,2.4,3.2,3.5,4.6
		c1.3,1.8,2.3,3.2,3.3,4.6c1.7,2.5,3.3,5.2,4.5,7.9c-12.4-1.1-23.9-4.6-34-10.4c-0.8-0.4-1.6-0.9-2.3-1.4
		c-6.4-11.2-13.7-22.3-20.6-33.5l-32.2-5.1C89.5,266.8,133.8,311.1,189.4,316.2 M200.1,307.4"/>
</g>
</svg>
